<?xml version="1.0" encoding="UTF-8" standalone="no"?>
<!DOCTYPE svg PUBLIC "-//W3C//DTD SVG 1.1//EN" "http://www.w3.org/Graphics/SVG/1.1/DTD/svg11.dtd">
<svg width="100%" height="100%" viewBox="0 0 417 417" version="1.1" xmlns="http://www.w3.org/2000/svg" xmlns:xlink="http://www.w3.org/1999/xlink" xml:space="preserve" xmlns:serif="http://www.serif.com/" style="fill-rule:evenodd;clip-rule:evenodd;stroke-linejoin:round;stroke-miterlimit:2;">
    <g transform="matrix(1.22193,0,0,1.26452,-92.471,-110.216)">
        <path d="M246.171,87.161C340.27,87.161 416.667,160.984 416.667,251.914C416.667,342.843 340.27,416.667 246.171,416.667C152.073,416.667 75.676,342.843 75.676,251.914C75.676,160.984 152.073,87.161 246.171,87.161ZM246.171,117.581C322.896,117.581 385.186,177.773 385.186,251.914C385.186,326.054 322.896,386.246 246.171,386.246C169.447,386.246 107.157,326.054 107.157,251.914C107.157,177.773 169.447,117.581 246.171,117.581Z" style="fill:white;"/>
    </g>
    <g transform="matrix(1.04942,0,0,1,-9.98866,-0.792601)">
        <path d="M353.141,193.89C353.141,185.48 346.635,178.653 338.622,178.653L77.461,178.653C69.448,178.653 62.943,185.48 62.943,193.89L62.943,224.362C62.943,232.772 69.448,239.599 77.461,239.599L338.622,239.599C346.635,239.599 353.141,232.772 353.141,224.362L353.141,193.89Z" style="fill:white;"/>
    </g>
    <g transform="matrix(6.42582e-17,1.04942,-1,6.12323e-17,417.459,-9.98866)">
        <path d="M353.141,193.89C353.141,185.48 346.635,178.653 338.622,178.653L77.461,178.653C69.448,178.653 62.943,185.48 62.943,193.89L62.943,224.362C62.943,232.772 69.448,239.599 77.461,239.599L338.622,239.599C346.635,239.599 353.141,232.772 353.141,224.362L353.141,193.89Z" style="fill:white;"/>
    </g>
</svg>
